<?xml version="1.0" encoding="utf-8" standalone="no"?>
<!DOCTYPE svg PUBLIC "-//W3C//DTD SVG 1.1//EN"
  "http://www.w3.org/Graphics/SVG/1.1/DTD/svg11.dtd">
<svg xmlns:xlink="http://www.w3.org/1999/xlink" width="482.924674pt" height="391.8087pt" viewBox="0 0 482.924674 391.8087" xmlns="http://www.w3.org/2000/svg" version="1.1">
 <metadata>
  <rdf:RDF xmlns:dc="http://purl.org/dc/elements/1.1/" xmlns:cc="http://creativecommons.org/ns#" xmlns:rdf="http://www.w3.org/1999/02/22-rdf-syntax-ns#">
   <cc:Work>
    <dc:type rdf:resource="http://purl.org/dc/dcmitype/StillImage"/>
    <dc:date>2025-10-04T14:07:28.732874</dc:date>
    <dc:format>image/svg+xml</dc:format>
    <dc:creator>
     <cc:Agent>
      <dc:title>Matplotlib v3.6.3, https://matplotlib.org/</dc:title>
     </cc:Agent>
    </dc:creator>
   </cc:Work>
  </rdf:RDF>
 </metadata>
 <defs>
  <style type="text/css">*{stroke-linejoin: round; stroke-linecap: butt}</style>
 </defs>
 <g id="figure_1">
  <g id="patch_1">
   <path d="M 0 391.8087 
L 482.924674 391.8087 
L 482.924674 0 
L 0 0 
z
" style="fill: #ffffff"/>
  </g>
  <g id="axes_1">
   <g id="patch_2">
    <path d="M 396.564674 218.2887 
C 396.564674 196.447758 392.262485 174.819191 383.904318 154.640792 
C 375.546151 134.462392 363.294553 116.126579 347.850674 100.6827 
C 332.406796 85.238822 314.070982 72.987223 293.892583 64.629056 
C 273.714183 56.270889 252.085617 51.9687 230.244674 51.9687 
C 208.403732 51.9687 186.775165 56.270889 166.596766 64.629056 
C 146.418366 72.987223 128.082553 85.238822 112.638675 100.6827 
C 97.194796 116.126579 84.943197 134.462392 76.585031 154.640792 
C 68.226864 174.819191 63.924674 196.447758 63.924674 218.2887 
C 63.924674 240.129642 68.226864 261.758209 76.585031 281.936608 
C 84.943197 302.115008 97.194796 320.450821 112.638675 335.8947 
C 128.082553 351.338578 146.418366 363.590177 166.596766 371.948344 
C 186.775165 380.306511 208.403732 384.6087 230.244674 384.6087 
C 252.085617 384.6087 273.714183 380.306511 293.892583 371.948344 
C 314.070982 363.590177 332.406796 351.338578 347.850674 335.8947 
C 363.294553 320.450821 375.546151 302.115008 383.904318 281.936608 
C 392.262485 261.758209 396.564674 240.129642 396.564674 218.2887 
M 230.244674 218.2887 
C 230.244674 218.2887 230.244674 218.2887 230.244674 218.2887 
C 230.244674 218.2887 230.244674 218.2887 230.244674 218.2887 
C 230.244674 218.2887 230.244674 218.2887 230.244674 218.2887 
C 230.244674 218.2887 230.244674 218.2887 230.244674 218.2887 
C 230.244674 218.2887 230.244674 218.2887 230.244674 218.2887 
C 230.244674 218.2887 230.244674 218.2887 230.244674 218.2887 
C 230.244674 218.2887 230.244674 218.2887 230.244674 218.2887 
C 230.244674 218.2887 230.244674 218.2887 230.244674 218.2887 
C 230.244674 218.2887 230.244674 218.2887 230.244674 218.2887 
C 230.244674 218.2887 230.244674 218.2887 230.244674 218.2887 
C 230.244674 218.2887 230.244674 218.2887 230.244674 218.2887 
C 230.244674 218.2887 230.244674 218.2887 230.244674 218.2887 
C 230.244674 218.2887 230.244674 218.2887 230.244674 218.2887 
C 230.244674 218.2887 230.244674 218.2887 230.244674 218.2887 
C 230.244674 218.2887 230.244674 218.2887 230.244674 218.2887 
C 230.244674 218.2887 230.244674 218.2887 230.244674 218.2887 
M 396.564674 218.2887 
z
" style="fill: #ffffff"/>
   </g>
   <g id="patch_3">
    <path d="M 230.244674 91.186706 
L 303.498271 260.581684 
L 100.908804 292.960799 
z
" clip-path="url(#peba12a9675)" style="fill: #e69f00; opacity: 0.05"/>
   </g>
   <g id="patch_4">
    <path d="M 230.244674 96.71288 
L 282.534113 248.478021 
L 100.672412 293.09728 
z
" clip-path="url(#peba12a9675)" style="fill: #56b4e9; opacity: 0.05"/>
   </g>
   <g id="patch_5">
    <path d="M 230.244674 90.117124 
L 308.529492 263.48646 
L 100.457035 293.221629 
z
" clip-path="url(#peba12a9675)" style="fill: #009e73; opacity: 0.05"/>
   </g>
   <g id="patch_6">
    <path d="M 230.244674 94.395452 
L 286.278451 250.639816 
L 104.750403 290.742852 
z
" clip-path="url(#peba12a9675)" style="fill: #f0e442; opacity: 0.05"/>
   </g>
   <g id="matplotlib.axis_1">
    <g id="xtick_1">
     <g id="line2d_1">
      <path d="M 230.244674 218.2887 
L 230.244674 51.9687 
" clip-path="url(#peba12a9675)" style="fill: none; stroke-dasharray: 2.22,0.96; stroke-dashoffset: 0; stroke: #b0b0b0; stroke-opacity: 0.7; stroke-width: 0.6"/>
     </g>
     <g id="text_1">
      <!-- Accuracy -->
      <g style="fill: #1a1a1a" transform="translate(202.850924 44.77995) scale(0.12 -0.12)">
       <defs>
        <path id="DejaVuSans-41" d="M 2188 4044 
L 1331 1722 
L 3047 1722 
L 2188 4044 
z
M 1831 4666 
L 2547 4666 
L 4325 0 
L 3669 0 
L 3244 1197 
L 1141 1197 
L 716 0 
L 50 0 
L 1831 4666 
z
" transform="scale(0.015625)"/>
        <path id="DejaVuSans-63" d="M 3122 3366 
L 3122 2828 
Q 2878 2963 2633 3030 
Q 2388 3097 2138 3097 
Q 1578 3097 1268 2742 
Q 959 2388 959 1747 
Q 959 1106 1268 751 
Q 1578 397 2138 397 
Q 2388 397 2633 464 
Q 2878 531 3122 666 
L 3122 134 
Q 2881 22 2623 -34 
Q 2366 -91 2075 -91 
Q 1284 -91 818 406 
Q 353 903 353 1747 
Q 353 2603 823 3093 
Q 1294 3584 2113 3584 
Q 2378 3584 2631 3529 
Q 2884 3475 3122 3366 
z
" transform="scale(0.015625)"/>
        <path id="DejaVuSans-75" d="M 544 1381 
L 544 3500 
L 1119 3500 
L 1119 1403 
Q 1119 906 1312 657 
Q 1506 409 1894 409 
Q 2359 409 2629 706 
Q 2900 1003 2900 1516 
L 2900 3500 
L 3475 3500 
L 3475 0 
L 2900 0 
L 2900 538 
Q 2691 219 2414 64 
Q 2138 -91 1772 -91 
Q 1169 -91 856 284 
Q 544 659 544 1381 
z
M 1991 3584 
L 1991 3584 
z
" transform="scale(0.015625)"/>
        <path id="DejaVuSans-72" d="M 2631 2963 
Q 2534 3019 2420 3045 
Q 2306 3072 2169 3072 
Q 1681 3072 1420 2755 
Q 1159 2438 1159 1844 
L 1159 0 
L 581 0 
L 581 3500 
L 1159 3500 
L 1159 2956 
Q 1341 3275 1631 3429 
Q 1922 3584 2338 3584 
Q 2397 3584 2469 3576 
Q 2541 3569 2628 3553 
L 2631 2963 
z
" transform="scale(0.015625)"/>
        <path id="DejaVuSans-61" d="M 2194 1759 
Q 1497 1759 1228 1600 
Q 959 1441 959 1056 
Q 959 750 1161 570 
Q 1363 391 1709 391 
Q 2188 391 2477 730 
Q 2766 1069 2766 1631 
L 2766 1759 
L 2194 1759 
z
M 3341 1997 
L 3341 0 
L 2766 0 
L 2766 531 
Q 2569 213 2275 61 
Q 1981 -91 1556 -91 
Q 1019 -91 701 211 
Q 384 513 384 1019 
Q 384 1609 779 1909 
Q 1175 2209 1959 2209 
L 2766 2209 
L 2766 2266 
Q 2766 2663 2505 2880 
Q 2244 3097 1772 3097 
Q 1472 3097 1187 3025 
Q 903 2953 641 2809 
L 641 3341 
Q 956 3463 1253 3523 
Q 1550 3584 1831 3584 
Q 2591 3584 2966 3190 
Q 3341 2797 3341 1997 
z
" transform="scale(0.015625)"/>
        <path id="DejaVuSans-79" d="M 2059 -325 
Q 1816 -950 1584 -1140 
Q 1353 -1331 966 -1331 
L 506 -1331 
L 506 -850 
L 844 -850 
Q 1081 -850 1212 -737 
Q 1344 -625 1503 -206 
L 1606 56 
L 191 3500 
L 800 3500 
L 1894 763 
L 2988 3500 
L 3597 3500 
L 2059 -325 
z
" transform="scale(0.015625)"/>
       </defs>
       <use xlink:href="#DejaVuSans-41"/>
       <use xlink:href="#DejaVuSans-63" x="66.658203"/>
       <use xlink:href="#DejaVuSans-63" x="121.638672"/>
       <use xlink:href="#DejaVuSans-75" x="176.619141"/>
       <use xlink:href="#DejaVuSans-72" x="239.998047"/>
       <use xlink:href="#DejaVuSans-61" x="281.111328"/>
       <use xlink:href="#DejaVuSans-63" x="342.390625"/>
       <use xlink:href="#DejaVuSans-79" x="397.371094"/>
      </g>
     </g>
    </g>
    <g id="xtick_2">
     <g id="line2d_2">
      <path d="M 230.244674 218.2887 
L 374.28202 301.4487 
" clip-path="url(#peba12a9675)" style="fill: none; stroke-dasharray: 2.22,0.96; stroke-dashoffset: 0; stroke: #b0b0b0; stroke-opacity: 0.7; stroke-width: 0.6"/>
     </g>
     <g id="text_2">
      <!-- F1 (macro) -->
      <g style="fill: #1a1a1a" transform="translate(350.694974 310.00995) scale(0.12 -0.12)">
       <defs>
        <path id="DejaVuSans-46" d="M 628 4666 
L 3309 4666 
L 3309 4134 
L 1259 4134 
L 1259 2759 
L 3109 2759 
L 3109 2228 
L 1259 2228 
L 1259 0 
L 628 0 
L 628 4666 
z
" transform="scale(0.015625)"/>
        <path id="DejaVuSans-31" d="M 794 531 
L 1825 531 
L 1825 4091 
L 703 3866 
L 703 4441 
L 1819 4666 
L 2450 4666 
L 2450 531 
L 3481 531 
L 3481 0 
L 794 0 
L 794 531 
z
" transform="scale(0.015625)"/>
        <path id="DejaVuSans-20" transform="scale(0.015625)"/>
        <path id="DejaVuSans-28" d="M 1984 4856 
Q 1566 4138 1362 3434 
Q 1159 2731 1159 2009 
Q 1159 1288 1364 580 
Q 1569 -128 1984 -844 
L 1484 -844 
Q 1016 -109 783 600 
Q 550 1309 550 2009 
Q 550 2706 781 3412 
Q 1013 4119 1484 4856 
L 1984 4856 
z
" transform="scale(0.015625)"/>
        <path id="DejaVuSans-6d" d="M 3328 2828 
Q 3544 3216 3844 3400 
Q 4144 3584 4550 3584 
Q 5097 3584 5394 3201 
Q 5691 2819 5691 2113 
L 5691 0 
L 5113 0 
L 5113 2094 
Q 5113 2597 4934 2840 
Q 4756 3084 4391 3084 
Q 3944 3084 3684 2787 
Q 3425 2491 3425 1978 
L 3425 0 
L 2847 0 
L 2847 2094 
Q 2847 2600 2669 2842 
Q 2491 3084 2119 3084 
Q 1678 3084 1418 2786 
Q 1159 2488 1159 1978 
L 1159 0 
L 581 0 
L 581 3500 
L 1159 3500 
L 1159 2956 
Q 1356 3278 1631 3431 
Q 1906 3584 2284 3584 
Q 2666 3584 2933 3390 
Q 3200 3197 3328 2828 
z
" transform="scale(0.015625)"/>
        <path id="DejaVuSans-6f" d="M 1959 3097 
Q 1497 3097 1228 2736 
Q 959 2375 959 1747 
Q 959 1119 1226 758 
Q 1494 397 1959 397 
Q 2419 397 2687 759 
Q 2956 1122 2956 1747 
Q 2956 2369 2687 2733 
Q 2419 3097 1959 3097 
z
M 1959 3584 
Q 2709 3584 3137 3096 
Q 3566 2609 3566 1747 
Q 3566 888 3137 398 
Q 2709 -91 1959 -91 
Q 1206 -91 779 398 
Q 353 888 353 1747 
Q 353 2609 779 3096 
Q 1206 3584 1959 3584 
z
" transform="scale(0.015625)"/>
        <path id="DejaVuSans-29" d="M 513 4856 
L 1013 4856 
Q 1481 4119 1714 3412 
Q 1947 2706 1947 2009 
Q 1947 1309 1714 600 
Q 1481 -109 1013 -844 
L 513 -844 
Q 928 -128 1133 580 
Q 1338 1288 1338 2009 
Q 1338 2731 1133 3434 
Q 928 4138 513 4856 
z
" transform="scale(0.015625)"/>
       </defs>
       <use xlink:href="#DejaVuSans-46"/>
       <use xlink:href="#DejaVuSans-31" x="57.519531"/>
       <use xlink:href="#DejaVuSans-20" x="121.142578"/>
       <use xlink:href="#DejaVuSans-28" x="152.929688"/>
       <use xlink:href="#DejaVuSans-6d" x="191.943359"/>
       <use xlink:href="#DejaVuSans-61" x="289.355469"/>
       <use xlink:href="#DejaVuSans-63" x="350.634766"/>
       <use xlink:href="#DejaVuSans-72" x="405.615234"/>
       <use xlink:href="#DejaVuSans-6f" x="444.478516"/>
       <use xlink:href="#DejaVuSans-29" x="505.660156"/>
      </g>
     </g>
    </g>
    <g id="xtick_3">
     <g id="line2d_3">
      <path d="M 230.244674 218.2887 
L 86.207329 301.4487 
" clip-path="url(#peba12a9675)" style="fill: none; stroke-dasharray: 2.22,0.96; stroke-dashoffset: 0; stroke: #b0b0b0; stroke-opacity: 0.7; stroke-width: 0.6"/>
     </g>
     <g id="text_3">
      <!-- ROC-AUC (macro, OVR) -->
      <g style="fill: #1a1a1a" transform="translate(7.2 310.00995) scale(0.12 -0.12)">
       <defs>
        <path id="DejaVuSans-52" d="M 2841 2188 
Q 3044 2119 3236 1894 
Q 3428 1669 3622 1275 
L 4263 0 
L 3584 0 
L 2988 1197 
Q 2756 1666 2539 1819 
Q 2322 1972 1947 1972 
L 1259 1972 
L 1259 0 
L 628 0 
L 628 4666 
L 2053 4666 
Q 2853 4666 3247 4331 
Q 3641 3997 3641 3322 
Q 3641 2881 3436 2590 
Q 3231 2300 2841 2188 
z
M 1259 4147 
L 1259 2491 
L 2053 2491 
Q 2509 2491 2742 2702 
Q 2975 2913 2975 3322 
Q 2975 3731 2742 3939 
Q 2509 4147 2053 4147 
L 1259 4147 
z
" transform="scale(0.015625)"/>
        <path id="DejaVuSans-4f" d="M 2522 4238 
Q 1834 4238 1429 3725 
Q 1025 3213 1025 2328 
Q 1025 1447 1429 934 
Q 1834 422 2522 422 
Q 3209 422 3611 934 
Q 4013 1447 4013 2328 
Q 4013 3213 3611 3725 
Q 3209 4238 2522 4238 
z
M 2522 4750 
Q 3503 4750 4090 4092 
Q 4678 3434 4678 2328 
Q 4678 1225 4090 567 
Q 3503 -91 2522 -91 
Q 1538 -91 948 565 
Q 359 1222 359 2328 
Q 359 3434 948 4092 
Q 1538 4750 2522 4750 
z
" transform="scale(0.015625)"/>
        <path id="DejaVuSans-43" d="M 4122 4306 
L 4122 3641 
Q 3803 3938 3442 4084 
Q 3081 4231 2675 4231 
Q 1875 4231 1450 3742 
Q 1025 3253 1025 2328 
Q 1025 1406 1450 917 
Q 1875 428 2675 428 
Q 3081 428 3442 575 
Q 3803 722 4122 1019 
L 4122 359 
Q 3791 134 3420 21 
Q 3050 -91 2638 -91 
Q 1578 -91 968 557 
Q 359 1206 359 2328 
Q 359 3453 968 4101 
Q 1578 4750 2638 4750 
Q 3056 4750 3426 4639 
Q 3797 4528 4122 4306 
z
" transform="scale(0.015625)"/>
        <path id="DejaVuSans-2d" d="M 313 2009 
L 1997 2009 
L 1997 1497 
L 313 1497 
L 313 2009 
z
" transform="scale(0.015625)"/>
        <path id="DejaVuSans-55" d="M 556 4666 
L 1191 4666 
L 1191 1831 
Q 1191 1081 1462 751 
Q 1734 422 2344 422 
Q 2950 422 3222 751 
Q 3494 1081 3494 1831 
L 3494 4666 
L 4128 4666 
L 4128 1753 
Q 4128 841 3676 375 
Q 3225 -91 2344 -91 
Q 1459 -91 1007 375 
Q 556 841 556 1753 
L 556 4666 
z
" transform="scale(0.015625)"/>
        <path id="DejaVuSans-2c" d="M 750 794 
L 1409 794 
L 1409 256 
L 897 -744 
L 494 -744 
L 750 256 
L 750 794 
z
" transform="scale(0.015625)"/>
        <path id="DejaVuSans-56" d="M 1831 0 
L 50 4666 
L 709 4666 
L 2188 738 
L 3669 4666 
L 4325 4666 
L 2547 0 
L 1831 0 
z
" transform="scale(0.015625)"/>
       </defs>
       <use xlink:href="#DejaVuSans-52"/>
       <use xlink:href="#DejaVuSans-4f" x="69.482422"/>
       <use xlink:href="#DejaVuSans-43" x="148.193359"/>
       <use xlink:href="#DejaVuSans-2d" x="218.017578"/>
       <use xlink:href="#DejaVuSans-41" x="251.851562"/>
       <use xlink:href="#DejaVuSans-55" x="320.259766"/>
       <use xlink:href="#DejaVuSans-43" x="393.453125"/>
       <use xlink:href="#DejaVuSans-20" x="463.277344"/>
       <use xlink:href="#DejaVuSans-28" x="495.064453"/>
       <use xlink:href="#DejaVuSans-6d" x="534.078125"/>
       <use xlink:href="#DejaVuSans-61" x="631.490234"/>
       <use xlink:href="#DejaVuSans-63" x="692.769531"/>
       <use xlink:href="#DejaVuSans-72" x="747.75"/>
       <use xlink:href="#DejaVuSans-6f" x="786.613281"/>
       <use xlink:href="#DejaVuSans-2c" x="847.794922"/>
       <use xlink:href="#DejaVuSans-20" x="879.582031"/>
       <use xlink:href="#DejaVuSans-4f" x="911.369141"/>
       <use xlink:href="#DejaVuSans-56" x="988.330078"/>
       <use xlink:href="#DejaVuSans-52" x="1056.738281"/>
       <use xlink:href="#DejaVuSans-29" x="1126.220703"/>
      </g>
     </g>
    </g>
   </g>
   <g id="matplotlib.axis_2">
    <g id="ytick_1">
     <g id="line2d_4">
      <path d="M 230.244674 185.0247 
C 234.612863 185.0247 238.938576 185.885138 242.974256 187.556771 
C 247.009936 189.228405 250.677099 191.678724 253.765874 194.7675 
C 256.85465 197.856276 259.30497 201.523438 260.976603 205.559118 
C 262.648237 209.594798 263.508674 213.920512 263.508674 218.2887 
C 263.508674 222.656888 262.648237 226.982602 260.976603 231.018282 
C 259.30497 235.053962 256.85465 238.721124 253.765874 241.8099 
C 250.677099 244.898676 247.009936 247.348995 242.974256 249.020629 
C 238.938576 250.692262 234.612863 251.5527 230.244674 251.5527 
C 225.876486 251.5527 221.550773 250.692262 217.515093 249.020629 
C 213.479413 247.348995 209.81225 244.898676 206.723474 241.8099 
C 203.634699 238.721124 201.184379 235.053962 199.512746 231.018282 
C 197.841112 226.982602 196.980674 222.656888 196.980674 218.2887 
C 196.980674 213.920512 197.841112 209.594798 199.512746 205.559118 
C 201.184379 201.523438 203.634699 197.856276 206.723474 194.7675 
C 209.81225 191.678724 213.479413 189.228405 217.515093 187.556771 
C 221.550773 185.885138 225.876486 185.0247 230.244674 185.0247 
" clip-path="url(#peba12a9675)" style="fill: none; stroke-dasharray: 2.22,0.96; stroke-dashoffset: 0; stroke: #b0b0b0; stroke-opacity: 0.7; stroke-width: 0.6"/>
     </g>
     <g id="text_4">
      <!-- 0.2 -->
      <g style="fill: #1a1a1a" transform="translate(230.244674 182.529075) scale(0.12 -0.12)">
       <defs>
        <path id="DejaVuSans-30" d="M 2034 4250 
Q 1547 4250 1301 3770 
Q 1056 3291 1056 2328 
Q 1056 1369 1301 889 
Q 1547 409 2034 409 
Q 2525 409 2770 889 
Q 3016 1369 3016 2328 
Q 3016 3291 2770 3770 
Q 2525 4250 2034 4250 
z
M 2034 4750 
Q 2819 4750 3233 4129 
Q 3647 3509 3647 2328 
Q 3647 1150 3233 529 
Q 2819 -91 2034 -91 
Q 1250 -91 836 529 
Q 422 1150 422 2328 
Q 422 3509 836 4129 
Q 1250 4750 2034 4750 
z
" transform="scale(0.015625)"/>
        <path id="DejaVuSans-2e" d="M 684 794 
L 1344 794 
L 1344 0 
L 684 0 
L 684 794 
z
" transform="scale(0.015625)"/>
        <path id="DejaVuSans-32" d="M 1228 531 
L 3431 531 
L 3431 0 
L 469 0 
L 469 531 
Q 828 903 1448 1529 
Q 2069 2156 2228 2338 
Q 2531 2678 2651 2914 
Q 2772 3150 2772 3378 
Q 2772 3750 2511 3984 
Q 2250 4219 1831 4219 
Q 1534 4219 1204 4116 
Q 875 4013 500 3803 
L 500 4441 
Q 881 4594 1212 4672 
Q 1544 4750 1819 4750 
Q 2544 4750 2975 4387 
Q 3406 4025 3406 3419 
Q 3406 3131 3298 2873 
Q 3191 2616 2906 2266 
Q 2828 2175 2409 1742 
Q 1991 1309 1228 531 
z
" transform="scale(0.015625)"/>
       </defs>
       <use xlink:href="#DejaVuSans-30"/>
       <use xlink:href="#DejaVuSans-2e" x="63.623047"/>
       <use xlink:href="#DejaVuSans-32" x="95.410156"/>
      </g>
     </g>
    </g>
    <g id="ytick_2">
     <g id="line2d_5">
      <path d="M 230.244674 151.7607 
C 238.981051 151.7607 247.632478 153.481576 255.703838 156.824842 
C 263.775198 160.168109 271.109523 165.068749 277.287074 171.2463 
C 283.464626 177.423851 288.365265 184.758177 291.708532 192.829537 
C 295.051799 200.900896 296.772674 209.552323 296.772674 218.2887 
C 296.772674 227.025077 295.051799 235.676504 291.708532 243.747863 
C 288.365265 251.819223 283.464626 259.153549 277.287074 265.3311 
C 271.109523 271.508651 263.775198 276.409291 255.703838 279.752558 
C 247.632478 283.095824 238.981051 284.8167 230.244674 284.8167 
C 221.508297 284.8167 212.856871 283.095824 204.785511 279.752558 
C 196.714151 276.409291 189.379826 271.508651 183.202274 265.3311 
C 177.024723 259.153549 172.124084 251.819223 168.780817 243.747863 
C 165.43755 235.676504 163.716674 227.025077 163.716674 218.2887 
C 163.716674 209.552323 165.43755 200.900896 168.780817 192.829537 
C 172.124084 184.758177 177.024723 177.423851 183.202274 171.2463 
C 189.379826 165.068749 196.714151 160.168109 204.785511 156.824842 
C 212.856871 153.481576 221.508297 151.7607 230.244674 151.7607 
" clip-path="url(#peba12a9675)" style="fill: none; stroke-dasharray: 2.22,0.96; stroke-dashoffset: 0; stroke: #b0b0b0; stroke-opacity: 0.7; stroke-width: 0.6"/>
     </g>
     <g id="text_5">
      <!-- 0.4 -->
      <g style="fill: #1a1a1a" transform="translate(230.244674 149.265075) scale(0.12 -0.12)">
       <defs>
        <path id="DejaVuSans-34" d="M 2419 4116 
L 825 1625 
L 2419 1625 
L 2419 4116 
z
M 2253 4666 
L 3047 4666 
L 3047 1625 
L 3713 1625 
L 3713 1100 
L 3047 1100 
L 3047 0 
L 2419 0 
L 2419 1100 
L 313 1100 
L 313 1709 
L 2253 4666 
z
" transform="scale(0.015625)"/>
       </defs>
       <use xlink:href="#DejaVuSans-30"/>
       <use xlink:href="#DejaVuSans-2e" x="63.623047"/>
       <use xlink:href="#DejaVuSans-34" x="95.410156"/>
      </g>
     </g>
    </g>
    <g id="ytick_3">
     <g id="line2d_6">
      <path d="M 230.244674 118.4967 
C 243.34924 118.4967 256.32638 121.078014 268.433419 126.092914 
C 280.540459 131.107814 291.541947 138.458773 300.808274 147.7251 
C 310.074601 156.991427 317.425561 167.992915 322.440461 180.099955 
C 327.455361 192.206995 330.036674 205.184135 330.036674 218.2887 
C 330.036674 231.393265 327.455361 244.370405 322.440461 256.477445 
C 317.425561 268.584485 310.074601 279.585973 300.808274 288.8523 
C 291.541947 298.118627 280.540459 305.469586 268.433419 310.484486 
C 256.32638 315.499386 243.34924 318.0807 230.244674 318.0807 
C 217.140109 318.0807 204.162969 315.499386 192.055929 310.484486 
C 179.94889 305.469586 168.947402 298.118627 159.681074 288.8523 
C 150.414747 279.585973 143.063788 268.584485 138.048888 256.477445 
C 133.033988 244.370405 130.452674 231.393265 130.452674 218.2887 
C 130.452674 205.184135 133.033988 192.206995 138.048888 180.099955 
C 143.063788 167.992915 150.414747 156.991427 159.681074 147.7251 
C 168.947402 138.458773 179.94889 131.107814 192.055929 126.092914 
C 204.162969 121.078014 217.140109 118.4967 230.244674 118.4967 
" clip-path="url(#peba12a9675)" style="fill: none; stroke-dasharray: 2.22,0.96; stroke-dashoffset: 0; stroke: #b0b0b0; stroke-opacity: 0.7; stroke-width: 0.6"/>
     </g>
     <g id="text_6">
      <!-- 0.6 -->
      <g style="fill: #1a1a1a" transform="translate(230.244674 116.001075) scale(0.12 -0.12)">
       <defs>
        <path id="DejaVuSans-36" d="M 2113 2584 
Q 1688 2584 1439 2293 
Q 1191 2003 1191 1497 
Q 1191 994 1439 701 
Q 1688 409 2113 409 
Q 2538 409 2786 701 
Q 3034 994 3034 1497 
Q 3034 2003 2786 2293 
Q 2538 2584 2113 2584 
z
M 3366 4563 
L 3366 3988 
Q 3128 4100 2886 4159 
Q 2644 4219 2406 4219 
Q 1781 4219 1451 3797 
Q 1122 3375 1075 2522 
Q 1259 2794 1537 2939 
Q 1816 3084 2150 3084 
Q 2853 3084 3261 2657 
Q 3669 2231 3669 1497 
Q 3669 778 3244 343 
Q 2819 -91 2113 -91 
Q 1303 -91 875 529 
Q 447 1150 447 2328 
Q 447 3434 972 4092 
Q 1497 4750 2381 4750 
Q 2619 4750 2861 4703 
Q 3103 4656 3366 4563 
z
" transform="scale(0.015625)"/>
       </defs>
       <use xlink:href="#DejaVuSans-30"/>
       <use xlink:href="#DejaVuSans-2e" x="63.623047"/>
       <use xlink:href="#DejaVuSans-36" x="95.410156"/>
      </g>
     </g>
    </g>
    <g id="ytick_4">
     <g id="line2d_7">
      <path d="M 230.244674 85.2327 
C 247.717428 85.2327 265.020282 88.674452 281.163001 95.360985 
C 297.305721 102.047518 311.974372 111.848797 324.329474 124.2039 
C 336.684577 136.559003 346.485856 151.227654 353.172389 167.370373 
C 359.858923 183.513093 363.300674 200.815946 363.300674 218.2887 
C 363.300674 235.761454 359.858923 253.064307 353.172389 269.207027 
C 346.485856 285.349746 336.684577 300.018397 324.329474 312.3735 
C 311.974372 324.728603 297.305721 334.529882 281.163001 341.216415 
C 265.020282 347.902948 247.717428 351.3447 230.244674 351.3447 
C 212.771921 351.3447 195.469067 347.902948 179.326348 341.216415 
C 163.183628 334.529882 148.514977 324.728603 136.159875 312.3735 
C 123.804772 300.018397 114.003493 285.349746 107.316959 269.207027 
C 100.630426 253.064307 97.188674 235.761454 97.188674 218.2887 
C 97.188674 200.815946 100.630426 183.513093 107.316959 167.370373 
C 114.003493 151.227654 123.804772 136.559003 136.159875 124.2039 
C 148.514977 111.848797 163.183628 102.047518 179.326348 95.360985 
C 195.469067 88.674452 212.771921 85.2327 230.244674 85.2327 
" clip-path="url(#peba12a9675)" style="fill: none; stroke-dasharray: 2.22,0.96; stroke-dashoffset: 0; stroke: #b0b0b0; stroke-opacity: 0.7; stroke-width: 0.6"/>
     </g>
     <g id="text_7">
      <!-- 0.8 -->
      <g style="fill: #1a1a1a" transform="translate(230.244674 82.737075) scale(0.12 -0.12)">
       <defs>
        <path id="DejaVuSans-38" d="M 2034 2216 
Q 1584 2216 1326 1975 
Q 1069 1734 1069 1313 
Q 1069 891 1326 650 
Q 1584 409 2034 409 
Q 2484 409 2743 651 
Q 3003 894 3003 1313 
Q 3003 1734 2745 1975 
Q 2488 2216 2034 2216 
z
M 1403 2484 
Q 997 2584 770 2862 
Q 544 3141 544 3541 
Q 544 4100 942 4425 
Q 1341 4750 2034 4750 
Q 2731 4750 3128 4425 
Q 3525 4100 3525 3541 
Q 3525 3141 3298 2862 
Q 3072 2584 2669 2484 
Q 3125 2378 3379 2068 
Q 3634 1759 3634 1313 
Q 3634 634 3220 271 
Q 2806 -91 2034 -91 
Q 1263 -91 848 271 
Q 434 634 434 1313 
Q 434 1759 690 2068 
Q 947 2378 1403 2484 
z
M 1172 3481 
Q 1172 3119 1398 2916 
Q 1625 2713 2034 2713 
Q 2441 2713 2670 2916 
Q 2900 3119 2900 3481 
Q 2900 3844 2670 4047 
Q 2441 4250 2034 4250 
Q 1625 4250 1398 4047 
Q 1172 3844 1172 3481 
z
" transform="scale(0.015625)"/>
       </defs>
       <use xlink:href="#DejaVuSans-30"/>
       <use xlink:href="#DejaVuSans-2e" x="63.623047"/>
       <use xlink:href="#DejaVuSans-38" x="95.410156"/>
      </g>
     </g>
    </g>
   </g>
   <g id="line2d_8">
    <path d="M 230.244674 91.186706 
L 303.498271 260.581684 
L 100.908804 292.960799 
L 230.244674 91.186706 
" clip-path="url(#peba12a9675)" style="fill: none; stroke: #e69f00; stroke-linecap: square"/>
   </g>
   <g id="line2d_9">
    <path d="M 230.244674 96.71288 
L 282.534113 248.478021 
L 100.672412 293.09728 
L 230.244674 96.71288 
" clip-path="url(#peba12a9675)" style="fill: none; stroke: #56b4e9; stroke-linecap: square"/>
   </g>
   <g id="line2d_10">
    <path d="M 230.244674 90.117124 
L 308.529492 263.48646 
L 100.457035 293.221629 
L 230.244674 90.117124 
" clip-path="url(#peba12a9675)" style="fill: none; stroke: #009e73; stroke-linecap: square"/>
   </g>
   <g id="line2d_11">
    <path d="M 230.244674 94.395452 
L 286.278451 250.639816 
L 104.750403 290.742852 
L 230.244674 94.395452 
" clip-path="url(#peba12a9675)" style="fill: none; stroke: #f0e442; stroke-linecap: square"/>
   </g>
   <g id="patch_7">
    <path d="M 230.244674 51.9687 
C 208.403732 51.9687 186.775165 56.270889 166.596766 64.629056 
C 146.418366 72.987223 128.082553 85.238822 112.638675 100.6827 
C 97.194796 116.126579 84.943197 134.462392 76.585031 154.640792 
C 68.226864 174.819191 63.924674 196.447758 63.924674 218.2887 
C 63.924674 240.129642 68.226864 261.758209 76.585031 281.936608 
C 84.943197 302.115008 97.194796 320.450821 112.638675 335.8947 
C 128.082553 351.338578 146.418366 363.590177 166.596766 371.948344 
C 186.775165 380.306511 208.403732 384.6087 230.244674 384.6087 
C 252.085617 384.6087 273.714183 380.306511 293.892583 371.948344 
C 314.070982 363.590177 332.406796 351.338578 347.850674 335.8947 
C 363.294553 320.450821 375.546151 302.115008 383.904318 281.936608 
C 392.262485 261.758209 396.564674 240.129642 396.564674 218.2887 
C 396.564674 196.447758 392.262485 174.819191 383.904318 154.640792 
C 375.546151 134.462392 363.294553 116.126579 347.850674 100.6827 
C 332.406796 85.238822 314.070982 72.987223 293.892583 64.629056 
C 273.714183 56.270889 252.085617 51.9687 230.244674 51.9687 
" style="fill: none; stroke: #1a1a1a; stroke-linejoin: miter; stroke-linecap: square"/>
   </g>
   <g id="text_8">
    <!-- SCAML Radar: H4→H8 -->
    <g style="fill: #333333" transform="translate(142.639674 19.3575) scale(0.16 -0.16)">
     <defs>
      <path id="DejaVuSans-53" d="M 3425 4513 
L 3425 3897 
Q 3066 4069 2747 4153 
Q 2428 4238 2131 4238 
Q 1616 4238 1336 4038 
Q 1056 3838 1056 3469 
Q 1056 3159 1242 3001 
Q 1428 2844 1947 2747 
L 2328 2669 
Q 3034 2534 3370 2195 
Q 3706 1856 3706 1288 
Q 3706 609 3251 259 
Q 2797 -91 1919 -91 
Q 1588 -91 1214 -16 
Q 841 59 441 206 
L 441 856 
Q 825 641 1194 531 
Q 1563 422 1919 422 
Q 2459 422 2753 634 
Q 3047 847 3047 1241 
Q 3047 1584 2836 1778 
Q 2625 1972 2144 2069 
L 1759 2144 
Q 1053 2284 737 2584 
Q 422 2884 422 3419 
Q 422 4038 858 4394 
Q 1294 4750 2059 4750 
Q 2388 4750 2728 4690 
Q 3069 4631 3425 4513 
z
" transform="scale(0.015625)"/>
      <path id="DejaVuSans-4d" d="M 628 4666 
L 1569 4666 
L 2759 1491 
L 3956 4666 
L 4897 4666 
L 4897 0 
L 4281 0 
L 4281 4097 
L 3078 897 
L 2444 897 
L 1241 4097 
L 1241 0 
L 628 0 
L 628 4666 
z
" transform="scale(0.015625)"/>
      <path id="DejaVuSans-4c" d="M 628 4666 
L 1259 4666 
L 1259 531 
L 3531 531 
L 3531 0 
L 628 0 
L 628 4666 
z
" transform="scale(0.015625)"/>
      <path id="DejaVuSans-64" d="M 2906 2969 
L 2906 4863 
L 3481 4863 
L 3481 0 
L 2906 0 
L 2906 525 
Q 2725 213 2448 61 
Q 2172 -91 1784 -91 
Q 1150 -91 751 415 
Q 353 922 353 1747 
Q 353 2572 751 3078 
Q 1150 3584 1784 3584 
Q 2172 3584 2448 3432 
Q 2725 3281 2906 2969 
z
M 947 1747 
Q 947 1113 1208 752 
Q 1469 391 1925 391 
Q 2381 391 2643 752 
Q 2906 1113 2906 1747 
Q 2906 2381 2643 2742 
Q 2381 3103 1925 3103 
Q 1469 3103 1208 2742 
Q 947 2381 947 1747 
z
" transform="scale(0.015625)"/>
      <path id="DejaVuSans-3a" d="M 750 794 
L 1409 794 
L 1409 0 
L 750 0 
L 750 794 
z
M 750 3309 
L 1409 3309 
L 1409 2516 
L 750 2516 
L 750 3309 
z
" transform="scale(0.015625)"/>
      <path id="DejaVuSans-48" d="M 628 4666 
L 1259 4666 
L 1259 2753 
L 3553 2753 
L 3553 4666 
L 4184 4666 
L 4184 0 
L 3553 0 
L 3553 2222 
L 1259 2222 
L 1259 0 
L 628 0 
L 628 4666 
z
" transform="scale(0.015625)"/>
      <path id="DejaVuSans-2192" d="M 5050 2147 
L 5050 1866 
L 3822 638 
L 3447 1013 
L 4175 1741 
L 366 1741 
L 366 2272 
L 4175 2272 
L 3447 3000 
L 3822 3375 
L 5050 2147 
z
" transform="scale(0.015625)"/>
     </defs>
     <use xlink:href="#DejaVuSans-53"/>
     <use xlink:href="#DejaVuSans-43" x="63.476562"/>
     <use xlink:href="#DejaVuSans-41" x="133.300781"/>
     <use xlink:href="#DejaVuSans-4d" x="201.708984"/>
     <use xlink:href="#DejaVuSans-4c" x="287.988281"/>
     <use xlink:href="#DejaVuSans-20" x="343.701172"/>
     <use xlink:href="#DejaVuSans-52" x="375.488281"/>
     <use xlink:href="#DejaVuSans-61" x="442.720703"/>
     <use xlink:href="#DejaVuSans-64" x="504"/>
     <use xlink:href="#DejaVuSans-61" x="567.476562"/>
     <use xlink:href="#DejaVuSans-72" x="628.755859"/>
     <use xlink:href="#DejaVuSans-3a" x="668.119141"/>
     <use xlink:href="#DejaVuSans-20" x="701.810547"/>
     <use xlink:href="#DejaVuSans-48" x="733.597656"/>
     <use xlink:href="#DejaVuSans-34" x="808.792969"/>
     <use xlink:href="#DejaVuSans-2192" x="872.416016"/>
     <use xlink:href="#DejaVuSans-48" x="956.205078"/>
     <use xlink:href="#DejaVuSans-38" x="1031.400391"/>
    </g>
   </g>
   <g id="legend_1">
    <g id="patch_8">
     <path d="M 390.865924 85.752825 
L 474.124674 85.752825 
Q 475.724674 85.752825 475.724674 84.152825 
L 475.724674 24.3047 
Q 475.724674 22.7047 474.124674 22.7047 
L 390.865924 22.7047 
Q 389.265924 22.7047 389.265924 24.3047 
L 389.265924 84.152825 
Q 389.265924 85.752825 390.865924 85.752825 
z
" style="fill: #ffffff; opacity: 0.8; stroke: #cccccc; stroke-linejoin: miter"/>
    </g>
    <g id="text_9">
     <!-- Model -->
     <g style="fill: #333333" transform="translate(417.482018 33.503138) scale(0.1 -0.1)">
      <defs>
       <path id="DejaVuSans-65" d="M 3597 1894 
L 3597 1613 
L 953 1613 
Q 991 1019 1311 708 
Q 1631 397 2203 397 
Q 2534 397 2845 478 
Q 3156 559 3463 722 
L 3463 178 
Q 3153 47 2828 -22 
Q 2503 -91 2169 -91 
Q 1331 -91 842 396 
Q 353 884 353 1716 
Q 353 2575 817 3079 
Q 1281 3584 2069 3584 
Q 2775 3584 3186 3129 
Q 3597 2675 3597 1894 
z
M 3022 2063 
Q 3016 2534 2758 2815 
Q 2500 3097 2075 3097 
Q 1594 3097 1305 2825 
Q 1016 2553 972 2059 
L 3022 2063 
z
" transform="scale(0.015625)"/>
       <path id="DejaVuSans-6c" d="M 603 4863 
L 1178 4863 
L 1178 0 
L 603 0 
L 603 4863 
z
" transform="scale(0.015625)"/>
      </defs>
      <use xlink:href="#DejaVuSans-4d"/>
      <use xlink:href="#DejaVuSans-6f" x="86.279297"/>
      <use xlink:href="#DejaVuSans-64" x="147.460938"/>
      <use xlink:href="#DejaVuSans-65" x="210.9375"/>
      <use xlink:href="#DejaVuSans-6c" x="272.460938"/>
     </g>
    </g>
    <g id="line2d_12">
     <path d="M 392.465924 42.861575 
L 400.465924 42.861575 
L 408.465924 42.861575 
" style="fill: none; stroke: #e69f00; stroke-linecap: square"/>
    </g>
    <g id="text_10">
     <!-- LogReg -->
     <g style="fill: #333333" transform="translate(414.865924 45.661575) scale(0.08 -0.08)">
      <defs>
       <path id="DejaVuSans-67" d="M 2906 1791 
Q 2906 2416 2648 2759 
Q 2391 3103 1925 3103 
Q 1463 3103 1205 2759 
Q 947 2416 947 1791 
Q 947 1169 1205 825 
Q 1463 481 1925 481 
Q 2391 481 2648 825 
Q 2906 1169 2906 1791 
z
M 3481 434 
Q 3481 -459 3084 -895 
Q 2688 -1331 1869 -1331 
Q 1566 -1331 1297 -1286 
Q 1028 -1241 775 -1147 
L 775 -588 
Q 1028 -725 1275 -790 
Q 1522 -856 1778 -856 
Q 2344 -856 2625 -561 
Q 2906 -266 2906 331 
L 2906 616 
Q 2728 306 2450 153 
Q 2172 0 1784 0 
Q 1141 0 747 490 
Q 353 981 353 1791 
Q 353 2603 747 3093 
Q 1141 3584 1784 3584 
Q 2172 3584 2450 3431 
Q 2728 3278 2906 2969 
L 2906 3500 
L 3481 3500 
L 3481 434 
z
" transform="scale(0.015625)"/>
      </defs>
      <use xlink:href="#DejaVuSans-4c"/>
      <use xlink:href="#DejaVuSans-6f" x="53.962891"/>
      <use xlink:href="#DejaVuSans-67" x="115.144531"/>
      <use xlink:href="#DejaVuSans-52" x="178.621094"/>
      <use xlink:href="#DejaVuSans-65" x="243.603516"/>
      <use xlink:href="#DejaVuSans-67" x="305.126953"/>
     </g>
    </g>
    <g id="line2d_13">
     <path d="M 392.465924 54.604075 
L 400.465924 54.604075 
L 408.465924 54.604075 
" style="fill: none; stroke: #56b4e9; stroke-linecap: square"/>
    </g>
    <g id="text_11">
     <!-- RandomForest -->
     <g style="fill: #333333" transform="translate(414.865924 57.404075) scale(0.08 -0.08)">
      <defs>
       <path id="DejaVuSans-6e" d="M 3513 2113 
L 3513 0 
L 2938 0 
L 2938 2094 
Q 2938 2591 2744 2837 
Q 2550 3084 2163 3084 
Q 1697 3084 1428 2787 
Q 1159 2491 1159 1978 
L 1159 0 
L 581 0 
L 581 3500 
L 1159 3500 
L 1159 2956 
Q 1366 3272 1645 3428 
Q 1925 3584 2291 3584 
Q 2894 3584 3203 3211 
Q 3513 2838 3513 2113 
z
" transform="scale(0.015625)"/>
       <path id="DejaVuSans-73" d="M 2834 3397 
L 2834 2853 
Q 2591 2978 2328 3040 
Q 2066 3103 1784 3103 
Q 1356 3103 1142 2972 
Q 928 2841 928 2578 
Q 928 2378 1081 2264 
Q 1234 2150 1697 2047 
L 1894 2003 
Q 2506 1872 2764 1633 
Q 3022 1394 3022 966 
Q 3022 478 2636 193 
Q 2250 -91 1575 -91 
Q 1294 -91 989 -36 
Q 684 19 347 128 
L 347 722 
Q 666 556 975 473 
Q 1284 391 1588 391 
Q 1994 391 2212 530 
Q 2431 669 2431 922 
Q 2431 1156 2273 1281 
Q 2116 1406 1581 1522 
L 1381 1569 
Q 847 1681 609 1914 
Q 372 2147 372 2553 
Q 372 3047 722 3315 
Q 1072 3584 1716 3584 
Q 2034 3584 2315 3537 
Q 2597 3491 2834 3397 
z
" transform="scale(0.015625)"/>
       <path id="DejaVuSans-74" d="M 1172 4494 
L 1172 3500 
L 2356 3500 
L 2356 3053 
L 1172 3053 
L 1172 1153 
Q 1172 725 1289 603 
Q 1406 481 1766 481 
L 2356 481 
L 2356 0 
L 1766 0 
Q 1100 0 847 248 
Q 594 497 594 1153 
L 594 3053 
L 172 3053 
L 172 3500 
L 594 3500 
L 594 4494 
L 1172 4494 
z
" transform="scale(0.015625)"/>
      </defs>
      <use xlink:href="#DejaVuSans-52"/>
      <use xlink:href="#DejaVuSans-61" x="67.232422"/>
      <use xlink:href="#DejaVuSans-6e" x="128.511719"/>
      <use xlink:href="#DejaVuSans-64" x="191.890625"/>
      <use xlink:href="#DejaVuSans-6f" x="255.367188"/>
      <use xlink:href="#DejaVuSans-6d" x="316.548828"/>
      <use xlink:href="#DejaVuSans-46" x="413.960938"/>
      <use xlink:href="#DejaVuSans-6f" x="467.855469"/>
      <use xlink:href="#DejaVuSans-72" x="529.037109"/>
      <use xlink:href="#DejaVuSans-65" x="567.900391"/>
      <use xlink:href="#DejaVuSans-73" x="629.423828"/>
      <use xlink:href="#DejaVuSans-74" x="681.523438"/>
     </g>
    </g>
    <g id="line2d_14">
     <path d="M 392.465924 66.346575 
L 400.465924 66.346575 
L 408.465924 66.346575 
" style="fill: none; stroke: #009e73; stroke-linecap: square"/>
    </g>
    <g id="text_12">
     <!-- XGBoost -->
     <g style="fill: #333333" transform="translate(414.865924 69.146575) scale(0.08 -0.08)">
      <defs>
       <path id="DejaVuSans-58" d="M 403 4666 
L 1081 4666 
L 2241 2931 
L 3406 4666 
L 4084 4666 
L 2584 2425 
L 4184 0 
L 3506 0 
L 2194 1984 
L 872 0 
L 191 0 
L 1856 2491 
L 403 4666 
z
" transform="scale(0.015625)"/>
       <path id="DejaVuSans-47" d="M 3809 666 
L 3809 1919 
L 2778 1919 
L 2778 2438 
L 4434 2438 
L 4434 434 
Q 4069 175 3628 42 
Q 3188 -91 2688 -91 
Q 1594 -91 976 548 
Q 359 1188 359 2328 
Q 359 3472 976 4111 
Q 1594 4750 2688 4750 
Q 3144 4750 3555 4637 
Q 3966 4525 4313 4306 
L 4313 3634 
Q 3963 3931 3569 4081 
Q 3175 4231 2741 4231 
Q 1884 4231 1454 3753 
Q 1025 3275 1025 2328 
Q 1025 1384 1454 906 
Q 1884 428 2741 428 
Q 3075 428 3337 486 
Q 3600 544 3809 666 
z
" transform="scale(0.015625)"/>
       <path id="DejaVuSans-42" d="M 1259 2228 
L 1259 519 
L 2272 519 
Q 2781 519 3026 730 
Q 3272 941 3272 1375 
Q 3272 1813 3026 2020 
Q 2781 2228 2272 2228 
L 1259 2228 
z
M 1259 4147 
L 1259 2741 
L 2194 2741 
Q 2656 2741 2882 2914 
Q 3109 3088 3109 3444 
Q 3109 3797 2882 3972 
Q 2656 4147 2194 4147 
L 1259 4147 
z
M 628 4666 
L 2241 4666 
Q 2963 4666 3353 4366 
Q 3744 4066 3744 3513 
Q 3744 3084 3544 2831 
Q 3344 2578 2956 2516 
Q 3422 2416 3680 2098 
Q 3938 1781 3938 1306 
Q 3938 681 3513 340 
Q 3088 0 2303 0 
L 628 0 
L 628 4666 
z
" transform="scale(0.015625)"/>
      </defs>
      <use xlink:href="#DejaVuSans-58"/>
      <use xlink:href="#DejaVuSans-47" x="68.505859"/>
      <use xlink:href="#DejaVuSans-42" x="145.996094"/>
      <use xlink:href="#DejaVuSans-6f" x="214.599609"/>
      <use xlink:href="#DejaVuSans-6f" x="275.78125"/>
      <use xlink:href="#DejaVuSans-73" x="336.962891"/>
      <use xlink:href="#DejaVuSans-74" x="389.0625"/>
     </g>
    </g>
    <g id="line2d_15">
     <path d="M 392.465924 78.089075 
L 400.465924 78.089075 
L 408.465924 78.089075 
" style="fill: none; stroke: #f0e442; stroke-linecap: square"/>
    </g>
    <g id="text_13">
     <!-- MLP -->
     <g style="fill: #333333" transform="translate(414.865924 80.889075) scale(0.08 -0.08)">
      <defs>
       <path id="DejaVuSans-50" d="M 1259 4147 
L 1259 2394 
L 2053 2394 
Q 2494 2394 2734 2622 
Q 2975 2850 2975 3272 
Q 2975 3691 2734 3919 
Q 2494 4147 2053 4147 
L 1259 4147 
z
M 628 4666 
L 2053 4666 
Q 2838 4666 3239 4311 
Q 3641 3956 3641 3272 
Q 3641 2581 3239 2228 
Q 2838 1875 2053 1875 
L 1259 1875 
L 1259 0 
L 628 0 
L 628 4666 
z
" transform="scale(0.015625)"/>
      </defs>
      <use xlink:href="#DejaVuSans-4d"/>
      <use xlink:href="#DejaVuSans-4c" x="86.279297"/>
      <use xlink:href="#DejaVuSans-50" x="141.992188"/>
     </g>
    </g>
   </g>
  </g>
 </g>
 <defs>
  <clipPath id="peba12a9675">
   <path d="M 396.564674 218.2887 
C 396.564674 196.447758 392.262485 174.819191 383.904318 154.640792 
C 375.546151 134.462392 363.294553 116.126579 347.850674 100.6827 
C 332.406796 85.238822 314.070982 72.987223 293.892583 64.629056 
C 273.714183 56.270889 252.085617 51.9687 230.244674 51.9687 
C 208.403732 51.9687 186.775165 56.270889 166.596766 64.629056 
C 146.418366 72.987223 128.082553 85.238822 112.638675 100.6827 
C 97.194796 116.126579 84.943197 134.462392 76.585031 154.640792 
C 68.226864 174.819191 63.924674 196.447758 63.924674 218.2887 
C 63.924674 240.129642 68.226864 261.758209 76.585031 281.936608 
C 84.943197 302.115008 97.194796 320.450821 112.638675 335.8947 
C 128.082553 351.338578 146.418366 363.590177 166.596766 371.948344 
C 186.775165 380.306511 208.403732 384.6087 230.244674 384.6087 
C 252.085617 384.6087 273.714183 380.306511 293.892583 371.948344 
C 314.070982 363.590177 332.406796 351.338578 347.850674 335.8947 
C 363.294553 320.450821 375.546151 302.115008 383.904318 281.936608 
C 392.262485 261.758209 396.564674 240.129642 396.564674 218.2887 
M 230.244674 218.2887 
C 230.244674 218.2887 230.244674 218.2887 230.244674 218.2887 
C 230.244674 218.2887 230.244674 218.2887 230.244674 218.2887 
C 230.244674 218.2887 230.244674 218.2887 230.244674 218.2887 
C 230.244674 218.2887 230.244674 218.2887 230.244674 218.2887 
C 230.244674 218.2887 230.244674 218.2887 230.244674 218.2887 
C 230.244674 218.2887 230.244674 218.2887 230.244674 218.2887 
C 230.244674 218.2887 230.244674 218.2887 230.244674 218.2887 
C 230.244674 218.2887 230.244674 218.2887 230.244674 218.2887 
C 230.244674 218.2887 230.244674 218.2887 230.244674 218.2887 
C 230.244674 218.2887 230.244674 218.2887 230.244674 218.2887 
C 230.244674 218.2887 230.244674 218.2887 230.244674 218.2887 
C 230.244674 218.2887 230.244674 218.2887 230.244674 218.2887 
C 230.244674 218.2887 230.244674 218.2887 230.244674 218.2887 
C 230.244674 218.2887 230.244674 218.2887 230.244674 218.2887 
C 230.244674 218.2887 230.244674 218.2887 230.244674 218.2887 
C 230.244674 218.2887 230.244674 218.2887 230.244674 218.2887 
M 396.564674 218.2887 
z
"/>
  </clipPath>
 </defs>
</svg>
